<?xml version="1.0" standalone="no"?>
<!DOCTYPE svg PUBLIC "-//W3C//DTD SVG 20010904//EN" "http://www.w3.org/TR/2001/REC-SVG-20010904/DTD/svg10.dtd">
<!-- Created using Karbon, part of Calligra: http://www.calligra.org/karbon -->
<svg xmlns="http://www.w3.org/2000/svg" xmlns:xlink="http://www.w3.org/1999/xlink" width="144pt" height="144pt">
<defs/>
<g id="g8">
  <path id="path158" transform="matrix(1.33333 0 0 -1.33333 76.8365 111.436)" fill="#000000" d="M5.6317 24.8184C6.5347 27.6675 10.9717 28.6705 13.4117 28.2595C17.2087 27.6195 17.4627 24.3595 17.7287 21.3094C17.9927 18.2885 19.7297 17.5704 22.4667 16.7854C24.5387 16.1905 27.0257 15.8964 28.9417 14.8845C32.6407 12.9304 31.3077 9.24145 27.8207 7.61245C26.9287 6.87645 25.8447 6.73946 24.5687 7.19945C22.8637 6.37545 21.7437 6.66445 21.2087 8.06645C20.5277 8.65745 20.0017 9.62245 19.4897 10.3524C17.4247 13.2954 15.7027 15.5504 18.6167 18.7564C19.0687 19.2534 18.7637 19.6824 18.1057 19.6634C16.2337 19.6084 14.7077 19.1554 13.1237 20.6894C11.9067 21.8674 12.1197 23.5224 11.2347 24.7474C10.2227 26.1494 8.4857 26.2664 6.9677 25.7154C4.6717 24.8814 1.7277 22.1804 0.609703 20.0374C-0.833297 17.2744 0.533703 15.1114 2.1307 12.7324C3.0257 11.3984 3.9577 10.3864 5.4767 9.79246C7.9607 8.82146 8.0867 10.2975 9.1177 6.42246C9.5417 4.82646 9.2017 3.93646 10.4117 2.58245C11.4357 1.43646 12.9287 0.679454 14.3987 0.284454C19.8287 -1.17454 22.0647 3.24346 23.9427 7.50746C24.2767 8.26746 21.8187 8.00545 21.4627 7.19646C22.1257 8.70246 19.5967 3.17446 20.3887 4.60646C18.8987 1.91046 15.6247 0.698454 13.0777 3.15146C10.9117 5.23746 12.7207 7.45146 11.6107 9.49146C10.9617 10.6875 10.7297 10.2915 9.6437 10.7165C7.4557 11.5734 6.5037 11.0375 4.7877 13.1935C4.0137 14.1645 2.8957 15.7055 2.6117 16.9715C2.2787 18.4595 2.6287 19.7045 3.5257 20.9455C3.8957 21.4585 6.6787 24.2925 7.4197 24.3025C9.0057 24.3215 9.6517 21.2255 10.5227 20.1174C12.5377 17.5584 14.3267 18.1754 17.1407 18.2574C16.9697 18.5594 16.7987 18.8614 16.6287 19.1635C14.0117 16.2844 13.6527 15.2405 15.7807 11.5664C17.3047 8.93645 19.2377 5.04746 22.5507 4.79845C26.5287 4.50045 36.8407 9.15745 33.3307 14.4694C31.5757 17.1264 26.2727 17.3894 23.5257 18.2504C19.9587 19.3664 20.6197 21.6005 20.1007 24.5264C19.8257 26.0805 19.2447 27.2794 17.9947 28.2584C13.9497 31.4274 4.8217 29.7774 3.1527 24.5074C2.8817 23.6534 5.3667 23.9804 5.6317 24.8184L5.6317 24.8184"/>
  <path id="path160" transform="matrix(1.33333 0 0 -1.33333 78.1135 114.618)" fill="#000000" d="M5.41962 26.3177C2.74362 27.4897 2.53862 32.0557 2.66162 34.3967C2.83762 37.7577 4.77662 41.6997 7.65262 43.6957C10.2256 45.4827 15.3306 47.3327 16.7986 43.2957C17.2166 42.1437 16.9736 40.8247 17.1466 39.6637C17.2906 38.6967 17.2046 38.1377 18.0326 37.6397C19.1396 36.9737 21.0096 37.6987 22.0646 37.8647C25.6316 38.4277 29.1666 38.3597 32.5786 37.0497C35.7186 35.8457 37.3976 33.7247 36.7656 30.2167C36.4376 28.3987 34.7236 26.3587 35.1686 24.4077C35.7436 21.8807 38.6916 21.9867 40.9296 21.7587C44.6006 21.3847 47.4236 20.7167 48.0506 16.6477C48.7346 12.2057 46.3756 8.79674 42.4166 6.91174C40.5696 6.03274 38.3356 5.84674 36.5686 4.87974C33.3646 3.12674 31.0606 0.141738 26.8226 2.10974C23.6026 3.60574 23.3386 8.23974 20.4006 9.33874C19.6536 9.61874 17.4046 8.52274 18.4266 8.13974C20.0716 7.52374 20.5786 4.82674 21.6686 3.47774C23.0816 1.72874 25.0816 0.515738 27.3026 0.137738C30.9776 -0.489262 34.1366 1.10974 36.9276 3.20374C40.5266 5.90374 45.4316 5.85374 48.5916 9.61774C51.1896 12.7137 51.9336 19.1957 48.1696 21.8077C46.7056 22.8237 44.9146 22.9147 43.2066 23.0807C41.6516 23.2327 38.3386 23.0567 37.6586 25.0537C37.2456 26.2697 38.5456 28.2797 38.8996 29.3827C40.2896 33.7047 38.3876 36.9557 34.2176 38.4007C31.7366 39.2607 29.0306 39.7597 26.4036 39.7037C25.0526 39.6757 23.7366 39.4477 22.4036 39.2377C20.2136 38.8937 20.0776 38.6707 19.6726 40.9047C18.9836 44.7047 18.4026 47.1977 14.0186 47.2247C8.86962 47.2567 4.49062 43.8887 1.89362 39.6577C-0.347377 36.0087 -1.42438 27.2517 3.44562 25.1177C4.18162 24.7957 6.44462 25.8687 5.41962 26.3177L5.41962 26.3177"/>
  <path id="path162" transform="matrix(1.33333 0 0 -1.33333 52.5445 129.348)" fill="#000000" d="M25.442 55.6954C23.209 54.9364 21.556 53.4484 19.432 52.4374C16.558 51.0694 13.381 50.5964 10.456 49.3434C6.29003 47.5574 3.06503 44.6534 1.53303 40.2924C-0.0209635 35.8674 1.86603 32.4354 5.54803 29.8684C8.35803 27.9094 11.199 25.8454 8.82103 22.1864C7.46003 20.0914 5.08203 18.8104 3.36003 17.0464C0.871037 14.4964 -1.00197 10.1564 0.588037 6.67137C2.24303 3.04137 7.05903 1.42037 10.773 1.76737C14.347 2.10037 19.262 7.04137 22.206 5.30737C23.675 4.44337 24.529 2.65337 26.151 1.75937C28.142 0.66437 30.216 0.13537 32.471 0.0163696C36.554 -0.19863 40.263 1.70937 42.279 5.43737C43.462 7.62537 43.476 9.91137 43.493 12.3074C43.507 14.2404 44.103 15.6794 42.014 16.1324C41.222 16.3044 39.097 15.0894 40.495 14.7854C42.12 14.4334 40.752 7.45437 40.289 6.34937C38.777 2.74937 35.221 0.81037 31.421 1.64637C27.928 2.41437 26.809 4.50137 24.45 6.57337C23.68 7.25137 24.055 7.37337 22.794 7.55537C20.106 7.94237 17.033 5.50437 14.737 4.49137C5.00403 0.19637 -1.25797 10.0764 5.68103 16.9694C7.84203 19.1164 11.085 20.7834 12.019 23.9024C13.377 28.4324 9.12003 29.5574 6.38403 31.9124C0.164037 37.2654 5.19103 45.6614 11.436 48.3234C13.986 49.4114 16.745 49.7414 19.283 50.8724C21.497 51.8594 23.533 53.6934 25.774 54.4554C27.208 54.9434 26.922 56.1994 25.442 55.6954L25.442 55.6954"/>
  <path id="path164" transform="matrix(1.33333 0 0 -1.33333 75.7765 135.839)" fill="#000000" d="M3.00997 58.0983C1.11497 60.1573 4.23397 66.3823 5.28297 67.9373C7.62297 71.4053 11.324 74.3983 15.244 75.9063C18.859 77.2973 25.746 77.9713 28.448 74.3713C30.023 72.2733 29.369 71.2733 32.002 70.3453C34.971 69.2983 38.145 69.8383 41.172 68.5263C44.858 66.9273 46.944 64.0393 48.013 60.2773C48.801 57.5073 48.173 54.2363 49.525 51.6133C50.731 49.2753 53.572 48.3793 55.023 46.1563C59.092 39.9203 56.146 30.4183 51.953 25.0813C50.244 22.9063 48.882 21.9103 48.557 19.0333C48.124 15.1973 48.24 12.6883 45.915 9.17426C43.463 5.46927 39.652 3.13027 35.427 1.91926C32.747 1.15126 31.184 1.41227 28.56 2.02826C27.314 2.32027 26.631 2.43326 25.358 2.38126C23.775 2.31726 21.591 1.53326 20.149 1.63727C18.217 1.77627 16.843 2.69927 15.321 3.66827C13.14 5.05826 11.819 7.97727 9.50397 8.94226C8.76397 9.25026 6.50497 8.17027 7.52997 7.74227C9.61797 6.87127 10.9 4.04327 12.854 2.76927C15.096 1.30727 17.068 0.177274 19.792 0.259264C26.013 0.445274 31.395 -0.910726 37.343 1.19927C42.755 3.11927 47.146 6.41926 49.618 11.7073C50.285 13.1343 50.885 14.5813 51.03 16.1563C51.164 17.6163 50.722 19.3513 51.175 20.7383C52.173 23.8023 55.545 26.2803 57.002 29.2113C59.37 33.9733 60.638 42.3503 57.483 47.1343C55.521 50.1083 52.399 50.5193 51.431 54.2713C50.579 57.5733 50.921 60.6933 49.372 63.8983C46.888 69.0393 41.963 70.3123 36.828 71.2863C35.375 71.5623 32.862 72.1623 31.791 73.2973C31.531 73.5723 31.613 74.1113 31.348 74.4033C30.487 75.3563 30.083 76.1393 28.914 76.8733C26.66 78.2903 24.222 78.3023 21.639 78.3093C15.801 78.3253 10.402 75.6983 6.16397 71.6953C3.81797 69.4793 1.78397 66.7993 0.887971 63.6643C0.377971 61.8773 -0.725029 58.6843 0.706971 57.1273C1.28897 56.4953 3.65397 57.3983 3.00997 58.0983L3.00997 58.0983"/>
  <path id="path166" transform="matrix(1.33333 0 0 -1.33333 21.9512 146.065)" fill="#000000" d="M54.0287 84.6292C47.0157 84.3362 40.3477 81.5272 34.1037 78.4742C29.0857 76.0202 26.1517 71.8252 24.2057 66.6992C22.7667 62.9102 22.5817 57.5222 19.6167 54.5832C16.6767 51.6702 12.3507 50.4062 9.0717 47.9652C4.0797 44.2492 1.0807 39.3952 0.256699 33.2362C-0.549301 27.2102 0.359699 21.9202 5.6297 18.3112C8.2147 16.5412 11.2047 15.9632 14.0057 14.6942C16.5217 13.5542 17.3207 12.7352 17.3437 9.97822C17.3567 8.54722 17.1367 6.98123 17.7407 5.65022C20.0437 0.579228 26.5457 -0.253782 31.3377 0.0572282C34.0177 0.232218 36.7797 0.607218 39.2957 1.58922C40.9267 2.22522 42.4297 3.17422 44.0177 3.89923C44.4497 4.09722 47.3607 5.74923 47.7267 5.60823C47.6527 5.63623 48.8707 3.44123 49.1267 3.22322C49.9497 2.52122 50.9897 2.08723 51.9957 1.73022C55.1757 0.598218 59.1497 0.690218 62.4687 0.978218C64.3767 1.14422 66.6587 1.71022 68.2647 2.77222C69.2647 3.43222 70.1257 4.37122 70.7407 5.40022C71.2867 6.31222 71.3967 7.90222 72.0117 8.66222C72.6957 9.50722 70.2127 9.34422 69.7027 8.71422C69.2297 8.13022 69.3127 7.49122 69.0297 6.82822C67.4977 3.22022 65.3377 2.56822 61.2607 2.37922C56.6417 2.16423 52.1647 2.29422 49.8157 6.75523C49.6627 7.04423 49.3727 7.12222 49.0577 7.12622C47.4987 7.14222 46.7177 6.59522 45.2807 5.90723C41.9797 4.32723 38.4517 2.34523 34.8527 1.75923C30.8427 1.10722 26.1867 0.892228 22.8127 3.53023C19.4797 6.13723 20.2247 8.16523 19.8327 11.9902C19.3997 16.2072 15.0667 16.1242 11.6077 17.4852C4.9427 20.1072 1.9207 24.9072 2.5587 32.0432C3.1637 38.8122 6.1787 44.3752 11.9437 48.1722C16.0447 50.8742 21.5217 52.4762 23.7477 57.2522C26.1687 62.4442 26.2417 68.1942 29.7957 73.0272C32.1677 76.2522 35.4777 77.6642 39.0597 79.1862C43.6227 81.1242 48.0107 83.0112 53.0637 83.2232C53.9817 83.2612 55.6887 84.6992 54.0287 84.6292L54.0287 84.6292"/>
  <path id="path168" transform="matrix(1.33333 0 0 -1.33333 34.962 79.4232)" fill="#000000" d="M5.6566 1.13828C4.2756 2.28828 3.4076 3.28228 2.8946 5.07128C1.8566 8.69427 3.0196 10.7273 5.4706 13.3223C7.9336 15.9293 6.4186 19.9723 6.8896 23.2773C7.7406 29.2503 12.1266 29.4343 16.6476 31.4133C18.5716 32.2553 19.9916 33.7113 21.9846 34.5433C26.6186 36.4793 30.2276 34.5063 33.9806 31.7943C34.6886 31.2823 36.9606 32.2753 36.2836 32.7643C31.6316 36.1263 27.0856 38.2173 21.3656 36.1193C18.7906 35.1743 16.9846 33.0793 14.3366 32.2843C12.0136 31.5863 9.5136 30.7223 7.5746 29.1703C5.8246 27.7693 4.9196 25.6653 4.5096 23.5093C3.7056 19.2883 4.9206 16.1173 2.0456 12.4973C-1.0694 8.57728 -0.621402 3.47928 3.3526 0.168271C4.0236 -0.390719 6.3316 0.575281 5.6566 1.13828L5.6566 1.13828"/>
  <path id="path170" transform="matrix(1.33333 0 0 -1.33333 79.6645 157.607)" fill="#000000" d="M0.032815 12.8616C-0.287185 7.46964 1.70882 2.85064 7.09382 0.883641C9.13482 0.137641 11.6198 -0.223359 13.7948 0.146641C16.5758 0.618641 18.2738 3.28764 20.8088 3.91364C23.4638 4.56964 26.2588 2.02364 28.9238 1.73364C31.2658 1.47764 33.6658 1.70964 35.8958 2.48264C38.2488 3.29864 40.6138 4.70964 42.2668 6.59664C42.9628 7.39164 43.5558 8.18664 43.9498 9.17764C44.3178 10.1036 44.2708 13.0026 44.8518 13.6896C44.3068 13.4636 43.7608 13.2386 43.2148 13.0126C47.6558 12.8466 50.9118 13.0646 52.4178 17.8336C54.1808 23.4156 53.1978 30.8076 47.5348 33.5916C46.8118 33.9476 44.5388 32.8946 45.5608 32.3916C50.0068 30.2056 50.8238 25.4376 50.5028 21.0066C50.3828 19.3606 50.1758 16.5106 48.9148 15.2996C47.0008 13.4596 45.7318 14.9726 43.8668 14.4016C43.0208 14.1426 42.3518 13.8686 41.9478 12.9576C41.6218 12.2236 41.9898 10.8106 41.8208 10.0246C41.0918 6.64964 37.5018 4.13664 34.3358 3.34464C31.2978 2.58464 28.6478 3.13464 26.0938 4.68164C25.3938 5.10564 24.8858 5.77964 24.0638 6.00564C22.8108 6.34964 21.7078 5.93764 20.5768 5.40964C18.7728 4.56864 17.3088 2.90064 15.4998 2.14164C13.0478 1.11364 10.0748 1.44864 7.75682 2.62764C3.53782 4.77364 2.24882 8.73463 2.51282 13.1726C2.57282 14.1796 0.081815 13.6926 0.032815 12.8616L0.032815 12.8616"/>
  <path id="path172" transform="matrix(1.33333 0 0 -1.33333 72.1345 33.232)" fill="#000000" d="M2.25544 1.42701C6.02544 4.756 10.4744 4.8 15.1824 4.343C17.7074 4.098 20.0994 4.674 22.4134 3.026C23.5074 2.248 24.6264 0.974999 25.7424 0.146999C26.4444 -0.373001 28.7234 0.615009 28.0464 1.117C26.2254 2.468 24.7864 4.533 22.6594 5.31801C21.4614 5.76001 19.8734 5.59501 18.6414 5.665C16.6654 5.777 14.7294 6.17 12.7624 6.295C8.44444 6.56801 3.49344 4.68401 0.266444 1.83401C-0.801556 0.892009 1.64544 0.889009 2.25544 1.42701L2.25544 1.42701"/>
  <path id="path174" transform="matrix(1.33333 0 0 -1.33333 145.985 119.895)" fill="#000000" d="M4.22394 26.3476C6.86794 21.6556 6.03694 17.0506 5.33794 11.9876C4.92794 9.01361 5.99794 2.05261 1.30594 1.39861C0.112937 1.23262 -0.752063 -0.212388 0.966937 0.0266123C4.97394 0.584612 7.62094 4.00561 7.79694 7.99161C8.07894 14.3536 10.0499 21.0736 6.70394 27.0116C6.23494 27.8446 3.84294 27.0236 4.22394 26.3476L4.22394 26.3476"/>
 </g>
</svg>
